<mxfile host="65bd71144e">
    <diagram id="ALVgp9hBoRRa0a7zI2m-" name="Page-1">
        <mxGraphModel dx="1469" dy="1813" grid="1" gridSize="10" guides="1" tooltips="1" connect="1" arrows="1" fold="1" page="0" pageScale="1" pageWidth="1169" pageHeight="827" math="0" shadow="0">
            <root>
                <mxCell id="0"/>
                <mxCell id="1" parent="0"/>
                <mxCell id="168" value="Repository" style="swimlane;whiteSpace=wrap;html=1;" vertex="1" parent="1">
                    <mxGeometry x="340" y="-780" width="520" height="200" as="geometry"/>
                </mxCell>
                <mxCell id="169" value="UserRepository" style="rounded=0;whiteSpace=wrap;html=1;" vertex="1" parent="168">
                    <mxGeometry x="40" y="40" width="120" height="40" as="geometry"/>
                </mxCell>
                <mxCell id="170" value="AreaRepository" style="rounded=0;whiteSpace=wrap;html=1;" vertex="1" parent="168">
                    <mxGeometry x="200" y="40" width="120" height="40" as="geometry"/>
                </mxCell>
                <mxCell id="171" value="&lt;div&gt;Reservation&lt;/div&gt;&lt;div&gt;Repository&lt;/div&gt;" style="rounded=0;whiteSpace=wrap;html=1;" vertex="1" parent="168">
                    <mxGeometry x="360" y="40" width="120" height="40" as="geometry"/>
                </mxCell>
                <mxCell id="172" value="AreaFeature&lt;div&gt;&lt;span style=&quot;background-color: transparent;&quot;&gt;Repository&lt;/span&gt;&lt;/div&gt;" style="rounded=0;whiteSpace=wrap;html=1;" vertex="1" parent="168">
                    <mxGeometry x="120" y="120" width="120" height="40" as="geometry"/>
                </mxCell>
                <mxCell id="175" value="AreaType&lt;span style=&quot;background-color: transparent;&quot;&gt;Repository&lt;/span&gt;" style="rounded=0;whiteSpace=wrap;html=1;" vertex="1" parent="168">
                    <mxGeometry x="280" y="120" width="120" height="40" as="geometry"/>
                </mxCell>
                <mxCell id="211" style="edgeStyle=orthogonalEdgeStyle;html=1;exitX=0.5;exitY=1;exitDx=0;exitDy=0;entryX=0.5;entryY=0;entryDx=0;entryDy=0;" edge="1" parent="1" source="162" target="111">
                    <mxGeometry relative="1" as="geometry"/>
                </mxCell>
                <mxCell id="212" style="edgeStyle=orthogonalEdgeStyle;html=1;exitX=0.5;exitY=1;exitDx=0;exitDy=0;entryX=0.5;entryY=0;entryDx=0;entryDy=0;" edge="1" parent="1" source="163" target="116">
                    <mxGeometry relative="1" as="geometry"/>
                </mxCell>
                <mxCell id="213" style="edgeStyle=orthogonalEdgeStyle;html=1;exitX=0.5;exitY=1;exitDx=0;exitDy=0;entryX=0.5;entryY=0;entryDx=0;entryDy=0;" edge="1" parent="1" source="164" target="132">
                    <mxGeometry relative="1" as="geometry"/>
                </mxCell>
                <mxCell id="127" value="Entity" style="swimlane;whiteSpace=wrap;html=1;" vertex="1" parent="1">
                    <mxGeometry x="200" y="-120" width="520" height="200" as="geometry"/>
                </mxCell>
                <mxCell id="156" style="edgeStyle=orthogonalEdgeStyle;html=1;exitX=0;exitY=0.5;exitDx=0;exitDy=0;entryX=1;entryY=0.5;entryDx=0;entryDy=0;endArrow=diamond;endFill=0;" edge="1" parent="127" source="111" target="132">
                    <mxGeometry relative="1" as="geometry"/>
                </mxCell>
                <mxCell id="157" style="edgeStyle=orthogonalEdgeStyle;html=1;exitX=1;exitY=0.5;exitDx=0;exitDy=0;entryX=0;entryY=0.5;entryDx=0;entryDy=0;endArrow=diamond;endFill=0;" edge="1" parent="127" source="111" target="116">
                    <mxGeometry relative="1" as="geometry"/>
                </mxCell>
                <mxCell id="218" style="edgeStyle=orthogonalEdgeStyle;html=1;exitX=0.25;exitY=1;exitDx=0;exitDy=0;entryX=1;entryY=0.5;entryDx=0;entryDy=0;endArrow=diamond;endFill=1;" edge="1" parent="127" source="111" target="112">
                    <mxGeometry relative="1" as="geometry"/>
                </mxCell>
                <mxCell id="219" style="edgeStyle=orthogonalEdgeStyle;html=1;exitX=0.75;exitY=1;exitDx=0;exitDy=0;entryX=0;entryY=0.5;entryDx=0;entryDy=0;endArrow=diamond;endFill=1;" edge="1" parent="127" source="111" target="113">
                    <mxGeometry relative="1" as="geometry"/>
                </mxCell>
                <mxCell id="111" value="Area" style="rounded=0;whiteSpace=wrap;html=1;" vertex="1" parent="127">
                    <mxGeometry x="200" y="40" width="120" height="40" as="geometry"/>
                </mxCell>
                <mxCell id="112" value="AreaFeature" style="rounded=0;whiteSpace=wrap;html=1;" vertex="1" parent="127">
                    <mxGeometry x="80" y="120" width="120" height="40" as="geometry"/>
                </mxCell>
                <mxCell id="113" value="AreaType" style="rounded=0;whiteSpace=wrap;html=1;" vertex="1" parent="127">
                    <mxGeometry x="320" y="120" width="120" height="40" as="geometry"/>
                </mxCell>
                <mxCell id="116" value="Reservation" style="rounded=0;whiteSpace=wrap;html=1;" vertex="1" parent="127">
                    <mxGeometry x="360" y="40" width="120" height="40" as="geometry"/>
                </mxCell>
                <mxCell id="132" value="User" style="rounded=0;whiteSpace=wrap;html=1;" vertex="1" parent="127">
                    <mxGeometry x="40" y="40" width="120" height="40" as="geometry"/>
                </mxCell>
                <mxCell id="161" value="Services" style="swimlane;whiteSpace=wrap;html=1;" vertex="1" parent="1">
                    <mxGeometry x="200" y="-280" width="520" height="120" as="geometry"/>
                </mxCell>
                <mxCell id="162" value="AreaService" style="rounded=0;whiteSpace=wrap;html=1;" vertex="1" parent="161">
                    <mxGeometry x="200" y="40" width="120" height="40" as="geometry"/>
                </mxCell>
                <mxCell id="163" value="ReservationService" style="rounded=0;whiteSpace=wrap;html=1;" vertex="1" parent="161">
                    <mxGeometry x="360" y="40" width="120" height="40" as="geometry"/>
                </mxCell>
                <mxCell id="164" value="UserService" style="rounded=0;whiteSpace=wrap;html=1;" vertex="1" parent="161">
                    <mxGeometry x="40" y="40" width="120" height="40" as="geometry"/>
                </mxCell>
                <mxCell id="221" value="Assembly" style="swimlane;whiteSpace=wrap;html=1;" vertex="1" parent="1">
                    <mxGeometry x="200" y="120" width="520" height="120" as="geometry"/>
                </mxCell>
                <mxCell id="222" value="AreaAssembler" style="rounded=0;whiteSpace=wrap;html=1;" vertex="1" parent="221">
                    <mxGeometry x="200" y="40" width="120" height="40" as="geometry"/>
                </mxCell>
                <mxCell id="227" value="UserAssembler" style="rounded=0;whiteSpace=wrap;html=1;" vertex="1" parent="221">
                    <mxGeometry x="40" y="40" width="120" height="40" as="geometry"/>
                </mxCell>
                <mxCell id="234" value="Reservation&lt;br&gt;Assembler" style="rounded=0;whiteSpace=wrap;html=1;" vertex="1" parent="221">
                    <mxGeometry x="360" y="40" width="120" height="40" as="geometry"/>
                </mxCell>
                <mxCell id="225" style="edgeStyle=orthogonalEdgeStyle;html=1;exitX=0.5;exitY=1;exitDx=0;exitDy=0;" edge="1" parent="1" source="222" target="216">
                    <mxGeometry relative="1" as="geometry">
                        <Array as="points">
                            <mxPoint x="460" y="220"/>
                            <mxPoint x="220" y="220"/>
                        </Array>
                    </mxGeometry>
                </mxCell>
                <mxCell id="150" value="Representation" style="swimlane;whiteSpace=wrap;html=1;" vertex="1" parent="1">
                    <mxGeometry x="360" y="280" width="360" height="200" as="geometry"/>
                </mxCell>
                <mxCell id="151" value="SimpleUser" style="rounded=1;whiteSpace=wrap;html=1;" vertex="1" parent="150">
                    <mxGeometry x="40" y="120" width="120" height="40" as="geometry"/>
                </mxCell>
                <mxCell id="154" style="edgeStyle=orthogonalEdgeStyle;html=1;exitX=0.5;exitY=1;exitDx=0;exitDy=0;endArrow=diamond;endFill=0;" edge="1" parent="150" source="152" target="151">
                    <mxGeometry relative="1" as="geometry"/>
                </mxCell>
                <mxCell id="155" style="edgeStyle=orthogonalEdgeStyle;html=1;exitX=1;exitY=0.5;exitDx=0;exitDy=0;entryX=0;entryY=0.5;entryDx=0;entryDy=0;endArrow=diamond;endFill=0;" edge="1" parent="150" source="152" target="153">
                    <mxGeometry relative="1" as="geometry"/>
                </mxCell>
                <mxCell id="152" value="SimpleArea" style="rounded=1;whiteSpace=wrap;html=1;" vertex="1" parent="150">
                    <mxGeometry x="40" y="40" width="120" height="40" as="geometry"/>
                </mxCell>
                <mxCell id="153" value="SimpleReservation" style="rounded=1;whiteSpace=wrap;html=1;" vertex="1" parent="150">
                    <mxGeometry x="200" y="40" width="120" height="40" as="geometry"/>
                </mxCell>
                <mxCell id="215" value="DTO" style="swimlane;whiteSpace=wrap;html=1;" vertex="1" parent="1">
                    <mxGeometry x="120" y="280" width="200" height="120" as="geometry">
                        <mxRectangle x="120" y="-480" width="70" height="30" as="alternateBounds"/>
                    </mxGeometry>
                </mxCell>
                <mxCell id="216" value="AreaCreationDto" style="rounded=1;whiteSpace=wrap;html=1;" vertex="1" parent="215">
                    <mxGeometry x="40" y="40" width="120" height="40" as="geometry"/>
                </mxCell>
                <mxCell id="228" style="edgeStyle=orthogonalEdgeStyle;html=1;exitX=0.5;exitY=0;exitDx=0;exitDy=0;entryX=0.5;entryY=1;entryDx=0;entryDy=0;" edge="1" parent="1" source="222" target="111">
                    <mxGeometry relative="1" as="geometry"/>
                </mxCell>
                <mxCell id="233" style="edgeStyle=orthogonalEdgeStyle;html=1;exitX=0;exitY=0.5;exitDx=0;exitDy=0;entryX=0;entryY=0.5;entryDx=0;entryDy=0;" edge="1" parent="1" source="132" target="227">
                    <mxGeometry relative="1" as="geometry">
                        <Array as="points">
                            <mxPoint x="220" y="-60"/>
                            <mxPoint x="220" y="180"/>
                        </Array>
                    </mxGeometry>
                </mxCell>
                <mxCell id="235" style="edgeStyle=orthogonalEdgeStyle;html=1;exitX=1;exitY=0.5;exitDx=0;exitDy=0;entryX=1;entryY=0.5;entryDx=0;entryDy=0;" edge="1" parent="1" source="116" target="234">
                    <mxGeometry relative="1" as="geometry">
                        <Array as="points">
                            <mxPoint x="700" y="-60"/>
                            <mxPoint x="700" y="180"/>
                        </Array>
                    </mxGeometry>
                </mxCell>
                <mxCell id="237" style="edgeStyle=orthogonalEdgeStyle;html=1;exitX=0.5;exitY=1;exitDx=0;exitDy=0;entryX=0;entryY=0.5;entryDx=0;entryDy=0;" edge="1" parent="1" source="227" target="151">
                    <mxGeometry relative="1" as="geometry">
                        <Array as="points">
                            <mxPoint x="300" y="260"/>
                            <mxPoint x="340" y="260"/>
                            <mxPoint x="340" y="420"/>
                        </Array>
                    </mxGeometry>
                </mxCell>
                <mxCell id="238" style="edgeStyle=orthogonalEdgeStyle;html=1;exitX=0.5;exitY=1;exitDx=0;exitDy=0;entryX=0.5;entryY=0;entryDx=0;entryDy=0;" edge="1" parent="1" source="234" target="153">
                    <mxGeometry relative="1" as="geometry"/>
                </mxCell>
                <mxCell id="239" style="edgeStyle=orthogonalEdgeStyle;html=1;exitX=0.5;exitY=1;exitDx=0;exitDy=0;entryX=0.5;entryY=0;entryDx=0;entryDy=0;" edge="1" parent="1" source="222" target="152">
                    <mxGeometry relative="1" as="geometry"/>
                </mxCell>
                <mxCell id="289" style="edgeStyle=orthogonalEdgeStyle;html=1;exitX=1;exitY=0.5;exitDx=0;exitDy=0;entryX=0;entryY=0.5;entryDx=0;entryDy=0;" edge="1" parent="1" source="240" target="288">
                    <mxGeometry relative="1" as="geometry"/>
                </mxCell>
                <mxCell id="291" style="edgeStyle=orthogonalEdgeStyle;html=1;exitX=1;exitY=0.5;exitDx=0;exitDy=0;entryX=0;entryY=0.5;entryDx=0;entryDy=0;" edge="1" parent="1" source="240" target="286">
                    <mxGeometry relative="1" as="geometry"/>
                </mxCell>
                <mxCell id="302" style="edgeStyle=orthogonalEdgeStyle;html=1;exitX=0.5;exitY=1;exitDx=0;exitDy=0;entryX=0;entryY=0.5;entryDx=0;entryDy=0;" edge="1" parent="1" source="240" target="245">
                    <mxGeometry relative="1" as="geometry">
                        <Array as="points">
                            <mxPoint x="1300" y="60"/>
                            <mxPoint x="1060" y="60"/>
                            <mxPoint x="1060" y="20"/>
                        </Array>
                    </mxGeometry>
                </mxCell>
                <mxCell id="304" style="edgeStyle=orthogonalEdgeStyle;html=1;exitX=0.5;exitY=1;exitDx=0;exitDy=0;entryX=0;entryY=0.5;entryDx=0;entryDy=0;" edge="1" parent="1" source="240" target="246">
                    <mxGeometry relative="1" as="geometry">
                        <Array as="points">
                            <mxPoint x="1300" y="60"/>
                            <mxPoint x="1060" y="60"/>
                            <mxPoint x="1060" y="-60"/>
                        </Array>
                    </mxGeometry>
                </mxCell>
                <mxCell id="305" style="edgeStyle=orthogonalEdgeStyle;html=1;exitX=0.5;exitY=1;exitDx=0;exitDy=0;entryX=0;entryY=0.5;entryDx=0;entryDy=0;" edge="1" parent="1" source="240" target="241">
                    <mxGeometry relative="1" as="geometry">
                        <Array as="points">
                            <mxPoint x="1300" y="60"/>
                            <mxPoint x="1060" y="60"/>
                            <mxPoint x="1060" y="-140"/>
                        </Array>
                    </mxGeometry>
                </mxCell>
                <mxCell id="312" style="edgeStyle=orthogonalEdgeStyle;html=1;exitX=1;exitY=0.5;exitDx=0;exitDy=0;entryX=0;entryY=0.5;entryDx=0;entryDy=0;" edge="1" parent="1" source="240" target="287">
                    <mxGeometry relative="1" as="geometry"/>
                </mxCell>
                <mxCell id="240" value="AreaAssembler" style="rounded=0;whiteSpace=wrap;html=1;fillColor=#d5e8d4;strokeColor=#82b366;" vertex="1" parent="1">
                    <mxGeometry x="1240" width="120" height="40" as="geometry"/>
                </mxCell>
                <mxCell id="241" value="Area" style="rounded=0;whiteSpace=wrap;html=1;fillColor=#fff2cc;strokeColor=#d6b656;" vertex="1" parent="1">
                    <mxGeometry x="1080" y="-160" width="120" height="40" as="geometry"/>
                </mxCell>
                <mxCell id="254" style="edgeStyle=orthogonalEdgeStyle;html=1;exitX=0.5;exitY=1;exitDx=0;exitDy=0;entryX=0.5;entryY=0;entryDx=0;entryDy=0;" edge="1" parent="1" source="242" target="240">
                    <mxGeometry relative="1" as="geometry"/>
                </mxCell>
                <mxCell id="292" style="edgeStyle=orthogonalEdgeStyle;html=1;exitX=0.5;exitY=0;exitDx=0;exitDy=0;entryX=0.5;entryY=1;entryDx=0;entryDy=0;" edge="1" parent="1" source="242" target="255">
                    <mxGeometry relative="1" as="geometry"/>
                </mxCell>
                <mxCell id="242" value="AreaController" style="rounded=0;whiteSpace=wrap;html=1;fillColor=#ffe6cc;strokeColor=#d79b00;" vertex="1" parent="1">
                    <mxGeometry x="1240" y="-80" width="120" height="40" as="geometry"/>
                </mxCell>
                <mxCell id="245" value="SimpleArea" style="rounded=1;whiteSpace=wrap;html=1;fillColor=#dae8fc;strokeColor=#6c8ebf;" vertex="1" parent="1">
                    <mxGeometry x="1080" width="120" height="40" as="geometry"/>
                </mxCell>
                <mxCell id="246" value="AreaCreationDTO" style="rounded=1;whiteSpace=wrap;html=1;fillColor=#dae8fc;strokeColor=#6c8ebf;" vertex="1" parent="1">
                    <mxGeometry x="1080" y="-80" width="120" height="40" as="geometry"/>
                </mxCell>
                <mxCell id="301" style="edgeStyle=orthogonalEdgeStyle;html=1;exitX=0;exitY=0.5;exitDx=0;exitDy=0;entryX=1;entryY=0.5;entryDx=0;entryDy=0;" edge="1" parent="1" source="255" target="241">
                    <mxGeometry relative="1" as="geometry"/>
                </mxCell>
                <mxCell id="319" style="edgeStyle=orthogonalEdgeStyle;html=1;exitX=0.75;exitY=1;exitDx=0;exitDy=0;entryX=0.5;entryY=0;entryDx=0;entryDy=0;" edge="1" parent="1" source="255" target="286">
                    <mxGeometry relative="1" as="geometry"/>
                </mxCell>
                <mxCell id="255" value="AreaService" style="rounded=0;whiteSpace=wrap;html=1;fillColor=#f8cecc;strokeColor=#b85450;" vertex="1" parent="1">
                    <mxGeometry x="1240" y="-160" width="120" height="40" as="geometry"/>
                </mxCell>
                <mxCell id="306" style="edgeStyle=orthogonalEdgeStyle;html=1;exitX=0.5;exitY=1;exitDx=0;exitDy=0;entryX=1;entryY=0.5;entryDx=0;entryDy=0;" edge="1" parent="1" source="261" target="269">
                    <mxGeometry relative="1" as="geometry">
                        <Array as="points">
                            <mxPoint x="1620" y="60"/>
                            <mxPoint x="1860" y="60"/>
                            <mxPoint x="1860" y="20"/>
                        </Array>
                    </mxGeometry>
                </mxCell>
                <mxCell id="307" style="edgeStyle=orthogonalEdgeStyle;html=1;exitX=0.5;exitY=1;exitDx=0;exitDy=0;entryX=1;entryY=0.5;entryDx=0;entryDy=0;" edge="1" parent="1" source="261" target="262">
                    <mxGeometry relative="1" as="geometry">
                        <Array as="points">
                            <mxPoint x="1620" y="60"/>
                            <mxPoint x="1860" y="60"/>
                            <mxPoint x="1860" y="-140"/>
                        </Array>
                    </mxGeometry>
                </mxCell>
                <mxCell id="313" style="edgeStyle=orthogonalEdgeStyle;html=1;exitX=0;exitY=0.5;exitDx=0;exitDy=0;entryX=1;entryY=0.5;entryDx=0;entryDy=0;" edge="1" parent="1" source="261" target="287">
                    <mxGeometry relative="1" as="geometry"/>
                </mxCell>
                <mxCell id="315" style="edgeStyle=orthogonalEdgeStyle;html=1;exitX=0;exitY=0.5;exitDx=0;exitDy=0;entryX=1;entryY=0.5;entryDx=0;entryDy=0;" edge="1" parent="1" source="261" target="286">
                    <mxGeometry relative="1" as="geometry"/>
                </mxCell>
                <mxCell id="261" value="Reservation&lt;div&gt;Assembler&lt;/div&gt;" style="rounded=0;whiteSpace=wrap;html=1;fillColor=#d5e8d4;strokeColor=#82b366;" vertex="1" parent="1">
                    <mxGeometry x="1560" width="120" height="40" as="geometry"/>
                </mxCell>
                <mxCell id="262" value="Reservation" style="rounded=0;whiteSpace=wrap;html=1;fillColor=#fff2cc;strokeColor=#d6b656;" vertex="1" parent="1">
                    <mxGeometry x="1720" y="-160" width="120" height="40" as="geometry"/>
                </mxCell>
                <mxCell id="266" style="edgeStyle=orthogonalEdgeStyle;html=1;exitX=0.5;exitY=1;exitDx=0;exitDy=0;entryX=0.5;entryY=0;entryDx=0;entryDy=0;" edge="1" parent="1" source="268" target="261">
                    <mxGeometry relative="1" as="geometry"/>
                </mxCell>
                <mxCell id="267" style="edgeStyle=orthogonalEdgeStyle;html=1;exitX=0.5;exitY=0;exitDx=0;exitDy=0;entryX=0.5;entryY=1;entryDx=0;entryDy=0;" edge="1" parent="1" source="268" target="272">
                    <mxGeometry relative="1" as="geometry"/>
                </mxCell>
                <mxCell id="268" value="Reservation&lt;div&gt;Controller&lt;/div&gt;" style="rounded=0;whiteSpace=wrap;html=1;fillColor=#ffe6cc;strokeColor=#d79b00;" vertex="1" parent="1">
                    <mxGeometry x="1560" y="-80" width="120" height="40" as="geometry"/>
                </mxCell>
                <mxCell id="269" value="SimpleReservation" style="rounded=1;whiteSpace=wrap;html=1;fillColor=#dae8fc;strokeColor=#6c8ebf;" vertex="1" parent="1">
                    <mxGeometry x="1720" width="120" height="40" as="geometry"/>
                </mxCell>
                <mxCell id="300" style="edgeStyle=orthogonalEdgeStyle;html=1;exitX=1;exitY=0.5;exitDx=0;exitDy=0;entryX=0;entryY=0.5;entryDx=0;entryDy=0;" edge="1" parent="1" source="272" target="262">
                    <mxGeometry relative="1" as="geometry"/>
                </mxCell>
                <mxCell id="317" style="edgeStyle=orthogonalEdgeStyle;html=1;exitX=0;exitY=0.5;exitDx=0;exitDy=0;entryX=1;entryY=0.5;entryDx=0;entryDy=0;" edge="1" parent="1" source="272" target="288">
                    <mxGeometry relative="1" as="geometry"/>
                </mxCell>
                <mxCell id="272" value="Reservation&lt;div&gt;Service&lt;/div&gt;" style="rounded=0;whiteSpace=wrap;html=1;fillColor=#f8cecc;strokeColor=#b85450;" vertex="1" parent="1">
                    <mxGeometry x="1560" y="-160" width="120" height="40" as="geometry"/>
                </mxCell>
                <mxCell id="286" value="AreaRepository" style="rounded=0;whiteSpace=wrap;html=1;fillColor=#e1d5e7;strokeColor=#9673a6;" vertex="1" parent="1">
                    <mxGeometry x="1400" y="-80" width="120" height="40" as="geometry"/>
                </mxCell>
                <mxCell id="287" value="UserRepository" style="rounded=0;whiteSpace=wrap;html=1;fillColor=#e1d5e7;strokeColor=#9673a6;" vertex="1" parent="1">
                    <mxGeometry x="1400" width="120" height="40" as="geometry"/>
                </mxCell>
                <mxCell id="288" value="Reservation&lt;div&gt;Repository&lt;/div&gt;" style="rounded=0;whiteSpace=wrap;html=1;fillColor=#e1d5e7;strokeColor=#9673a6;" vertex="1" parent="1">
                    <mxGeometry x="1400" y="-160" width="120" height="40" as="geometry"/>
                </mxCell>
                <mxCell id="369" value="Area" style="rounded=0;whiteSpace=wrap;html=1;fillColor=#fff2cc;strokeColor=#d6b656;" vertex="1" parent="1">
                    <mxGeometry x="1600" y="-440" width="120" height="40" as="geometry"/>
                </mxCell>
                <mxCell id="370" value="AreaFeature" style="rounded=0;whiteSpace=wrap;html=1;fillColor=#fff2cc;strokeColor=#d6b656;" vertex="1" parent="1">
                    <mxGeometry x="1200" y="-440" width="120" height="40" as="geometry"/>
                </mxCell>
                <mxCell id="371" value="AreaType" style="rounded=0;whiteSpace=wrap;html=1;fillColor=#fff2cc;strokeColor=#d6b656;" vertex="1" parent="1">
                    <mxGeometry x="1400" y="-440" width="120" height="40" as="geometry"/>
                </mxCell>
                <mxCell id="372" value="Reservation" style="rounded=0;whiteSpace=wrap;html=1;fillColor=#fff2cc;strokeColor=#d6b656;" vertex="1" parent="1">
                    <mxGeometry x="2000" y="-440" width="120" height="40" as="geometry"/>
                </mxCell>
                <mxCell id="373" value="User" style="rounded=0;whiteSpace=wrap;html=1;fillColor=#fff2cc;strokeColor=#d6b656;" vertex="1" parent="1">
                    <mxGeometry x="1800" y="-440" width="120" height="40" as="geometry"/>
                </mxCell>
                <mxCell id="404" style="edgeStyle=orthogonalEdgeStyle;html=1;exitX=0.5;exitY=1;exitDx=0;exitDy=0;entryX=0;entryY=0.5;entryDx=0;entryDy=0;" edge="1" parent="1" source="377" target="389">
                    <mxGeometry relative="1" as="geometry"/>
                </mxCell>
                <mxCell id="405" style="edgeStyle=orthogonalEdgeStyle;html=1;exitX=0.5;exitY=1;exitDx=0;exitDy=0;entryX=0;entryY=0.5;entryDx=0;entryDy=0;" edge="1" parent="1" source="377" target="391">
                    <mxGeometry relative="1" as="geometry"/>
                </mxCell>
                <mxCell id="377" value="AreaController" style="rounded=0;whiteSpace=wrap;html=1;fillColor=#ffe6cc;strokeColor=#d79b00;" vertex="1" parent="1">
                    <mxGeometry x="1520" y="-680" width="120" height="40" as="geometry"/>
                </mxCell>
                <mxCell id="401" style="edgeStyle=orthogonalEdgeStyle;html=1;exitX=0.5;exitY=1;exitDx=0;exitDy=0;entryX=0;entryY=0.5;entryDx=0;entryDy=0;" edge="1" parent="1" source="378" target="388">
                    <mxGeometry relative="1" as="geometry"/>
                </mxCell>
                <mxCell id="402" style="edgeStyle=orthogonalEdgeStyle;html=1;exitX=0.5;exitY=1;exitDx=0;exitDy=0;entryX=0;entryY=0.5;entryDx=0;entryDy=0;" edge="1" parent="1" source="378" target="390">
                    <mxGeometry relative="1" as="geometry"/>
                </mxCell>
                <mxCell id="378" value="Reservation&lt;br&gt;Controller" style="rounded=0;whiteSpace=wrap;html=1;fillColor=#ffe6cc;strokeColor=#d79b00;" vertex="1" parent="1">
                    <mxGeometry x="1920" y="-680" width="120" height="40" as="geometry"/>
                </mxCell>
                <mxCell id="403" style="edgeStyle=orthogonalEdgeStyle;html=1;exitX=0.5;exitY=1;exitDx=0;exitDy=0;entryX=0;entryY=0.5;entryDx=0;entryDy=0;" edge="1" parent="1" source="379" target="392">
                    <mxGeometry relative="1" as="geometry"/>
                </mxCell>
                <mxCell id="379" value="UserController" style="rounded=0;whiteSpace=wrap;html=1;fillColor=#ffe6cc;strokeColor=#d79b00;" vertex="1" parent="1">
                    <mxGeometry x="1720" y="-680" width="120" height="40" as="geometry"/>
                </mxCell>
                <mxCell id="406" style="edgeStyle=orthogonalEdgeStyle;html=1;exitX=0.5;exitY=1;exitDx=0;exitDy=0;entryX=0;entryY=0.5;entryDx=0;entryDy=0;" edge="1" parent="1" source="380" target="393">
                    <mxGeometry relative="1" as="geometry"/>
                </mxCell>
                <mxCell id="380" value="AreaTypeController" style="rounded=0;whiteSpace=wrap;html=1;fillColor=#ffe6cc;strokeColor=#d79b00;" vertex="1" parent="1">
                    <mxGeometry x="1320" y="-680" width="120" height="40" as="geometry"/>
                </mxCell>
                <mxCell id="408" style="edgeStyle=orthogonalEdgeStyle;html=1;exitX=0.5;exitY=1;exitDx=0;exitDy=0;entryX=0;entryY=0.5;entryDx=0;entryDy=0;" edge="1" parent="1" source="381" target="394">
                    <mxGeometry relative="1" as="geometry"/>
                </mxCell>
                <mxCell id="381" value="AreaFeature&lt;div&gt;Controller&lt;/div&gt;" style="rounded=0;whiteSpace=wrap;html=1;fillColor=#ffe6cc;strokeColor=#d79b00;" vertex="1" parent="1">
                    <mxGeometry x="1120" y="-680" width="120" height="40" as="geometry"/>
                </mxCell>
                <mxCell id="382" value="Reservation&lt;div&gt;Repository&lt;/div&gt;" style="rounded=0;whiteSpace=wrap;html=1;fillColor=#e1d5e7;strokeColor=#9673a6;" vertex="1" parent="1">
                    <mxGeometry x="2000" y="-360" width="120" height="40" as="geometry"/>
                </mxCell>
                <mxCell id="383" value="AreaRepository" style="rounded=0;whiteSpace=wrap;html=1;fillColor=#e1d5e7;strokeColor=#9673a6;" vertex="1" parent="1">
                    <mxGeometry x="1600" y="-360" width="120" height="40" as="geometry"/>
                </mxCell>
                <mxCell id="384" value="UserRepository" style="rounded=0;whiteSpace=wrap;html=1;fillColor=#e1d5e7;strokeColor=#9673a6;" vertex="1" parent="1">
                    <mxGeometry x="1800" y="-360" width="120" height="40" as="geometry"/>
                </mxCell>
                <mxCell id="385" value="AreaType" style="rounded=0;whiteSpace=wrap;html=1;fillColor=#e1d5e7;strokeColor=#9673a6;" vertex="1" parent="1">
                    <mxGeometry x="1400" y="-360" width="120" height="40" as="geometry"/>
                </mxCell>
                <mxCell id="386" value="AreaFeature" style="rounded=0;whiteSpace=wrap;html=1;fillColor=#e1d5e7;strokeColor=#9673a6;" vertex="1" parent="1">
                    <mxGeometry x="1200" y="-360" width="120" height="40" as="geometry"/>
                </mxCell>
                <mxCell id="388" value="Reservation&lt;div&gt;Assembler&lt;/div&gt;" style="rounded=0;whiteSpace=wrap;html=1;fillColor=#d5e8d4;strokeColor=#82b366;" vertex="1" parent="1">
                    <mxGeometry x="2000" y="-600" width="120" height="40" as="geometry"/>
                </mxCell>
                <mxCell id="389" value="AreaAssembler" style="rounded=0;whiteSpace=wrap;html=1;fillColor=#d5e8d4;strokeColor=#82b366;" vertex="1" parent="1">
                    <mxGeometry x="1600" y="-600" width="120" height="40" as="geometry"/>
                </mxCell>
                <mxCell id="411" style="edgeStyle=orthogonalEdgeStyle;html=1;exitX=1;exitY=0.5;exitDx=0;exitDy=0;entryX=1;entryY=0.5;entryDx=0;entryDy=0;" edge="1" parent="1" source="390" target="382">
                    <mxGeometry relative="1" as="geometry">
                        <Array as="points">
                            <mxPoint x="2140" y="-500"/>
                            <mxPoint x="2140" y="-340"/>
                        </Array>
                    </mxGeometry>
                </mxCell>
                <mxCell id="390" value="Reservation&lt;div&gt;Service&lt;/div&gt;" style="rounded=0;whiteSpace=wrap;html=1;fillColor=#f8cecc;strokeColor=#b85450;" vertex="1" parent="1">
                    <mxGeometry x="2000" y="-520" width="120" height="40" as="geometry"/>
                </mxCell>
                <mxCell id="413" style="edgeStyle=orthogonalEdgeStyle;html=1;exitX=1;exitY=0.5;exitDx=0;exitDy=0;entryX=1;entryY=0.5;entryDx=0;entryDy=0;" edge="1" parent="1" source="391" target="383">
                    <mxGeometry relative="1" as="geometry">
                        <Array as="points">
                            <mxPoint x="1740" y="-500"/>
                            <mxPoint x="1740" y="-340"/>
                        </Array>
                    </mxGeometry>
                </mxCell>
                <mxCell id="391" value="AreaService" style="rounded=0;whiteSpace=wrap;html=1;fillColor=#f8cecc;strokeColor=#b85450;" vertex="1" parent="1">
                    <mxGeometry x="1600" y="-520" width="120" height="40" as="geometry"/>
                </mxCell>
                <mxCell id="412" style="edgeStyle=orthogonalEdgeStyle;html=1;exitX=1;exitY=0.5;exitDx=0;exitDy=0;entryX=1;entryY=0.5;entryDx=0;entryDy=0;" edge="1" parent="1" source="392" target="384">
                    <mxGeometry relative="1" as="geometry">
                        <Array as="points">
                            <mxPoint x="1940" y="-500"/>
                            <mxPoint x="1940" y="-340"/>
                        </Array>
                    </mxGeometry>
                </mxCell>
                <mxCell id="392" value="UserService" style="rounded=0;whiteSpace=wrap;html=1;fillColor=#f8cecc;strokeColor=#b85450;" vertex="1" parent="1">
                    <mxGeometry x="1800" y="-520" width="120" height="40" as="geometry"/>
                </mxCell>
                <mxCell id="409" style="edgeStyle=orthogonalEdgeStyle;html=1;exitX=1;exitY=0.5;exitDx=0;exitDy=0;entryX=1;entryY=0.5;entryDx=0;entryDy=0;" edge="1" parent="1" source="393" target="385">
                    <mxGeometry relative="1" as="geometry">
                        <Array as="points">
                            <mxPoint x="1540" y="-500"/>
                            <mxPoint x="1540" y="-340"/>
                        </Array>
                    </mxGeometry>
                </mxCell>
                <mxCell id="393" value="AreaTypeService" style="rounded=0;whiteSpace=wrap;html=1;fillColor=#f8cecc;strokeColor=#b85450;" vertex="1" parent="1">
                    <mxGeometry x="1400" y="-520" width="120" height="40" as="geometry"/>
                </mxCell>
                <mxCell id="410" style="edgeStyle=orthogonalEdgeStyle;html=1;exitX=1;exitY=0.5;exitDx=0;exitDy=0;entryX=1;entryY=0.5;entryDx=0;entryDy=0;" edge="1" parent="1" source="394" target="386">
                    <mxGeometry relative="1" as="geometry">
                        <Array as="points">
                            <mxPoint x="1340" y="-500"/>
                            <mxPoint x="1340" y="-340"/>
                        </Array>
                    </mxGeometry>
                </mxCell>
                <mxCell id="394" value="AreaFeatureService" style="rounded=0;whiteSpace=wrap;html=1;fillColor=#f8cecc;strokeColor=#b85450;" vertex="1" parent="1">
                    <mxGeometry x="1200" y="-520" width="120" height="40" as="geometry"/>
                </mxCell>
            </root>
        </mxGraphModel>
    </diagram>
</mxfile>